<svg width="14" height="20" viewBox="0 0 36 57" fill="none" xmlns="http://www.w3.org/2000/svg">
<path d="M18.2669 4.2603C22.1217 4.2603 25.2757 7.4143 25.2757 11.2692V25.287H11.258V11.2692C11.258 7.4143 14.412 4.2603 18.2669 4.2603ZM28.7802 25.287V11.2692C28.7802 5.45181 24.0842 0.755859 18.2669 0.755859C12.4495 0.755859 7.75352 5.45181 7.75352 11.2692V25.287C3.89863 25.287 0.744629 28.441 0.744629 32.2959V49.8181C0.744629 53.673 3.89863 56.827 7.75352 56.827H28.7802C32.6351 56.827 35.7891 53.673 35.7891 49.8181V32.2959C35.7891 28.441 32.6351 25.287 28.7802 25.287ZM7.75352 28.7914H28.7802C30.7076 28.7914 32.2846 30.3684 32.2846 32.2959V49.8181C32.2846 51.7455 30.7076 53.3225 28.7802 53.3225H7.75352C5.82607 53.3225 4.24907 51.7455 4.24907 49.8181V32.2959C4.24907 30.3684 5.82607 28.7914 7.75352 28.7914Z" fill="white"/>
</svg>
